HIERARCHY
ROOT Hips
{
  OFFSET 279.157 85.6768 304.565
  CHANNELS 6 Xposition Yposition Zposition Zrotation Xrotation Yrotation
  JOINT LeftUpLeg
  {
    OFFSET 8.64259 1.95398 -2.38835
    CHANNELS 3 Zrotation Xrotation Yrotation
    JOINT LeftLeg
    {
      OFFSET 43.7702 0 0
      CHANNELS 3 Zrotation Xrotation Yrotation
      JOINT LeftFoot
      {
        OFFSET 40.6238 0 0
        CHANNELS 3 Zrotation Xrotation Yrotation
        JOINT LeftToeBase
        {
          OFFSET 12.7242 0 0
          CHANNELS 3 Zrotation Xrotation Yrotation
          End Site
          {
            OFFSET 0 0 0
          }
        }
      }
    }
  }
  JOINT RightUpLeg
  {
    OFFSET -8.2249 1.95398 -2.59336
    CHANNELS 3 Zrotation Xrotation Yrotation
    JOINT RightLeg
    {
      OFFSET 43.5653 0 0
      CHANNELS 3 Zrotation Xrotation Yrotation
      JOINT RightFoot
      {
        OFFSET 40.6238 0 0
        CHANNELS 3 Zrotation Xrotation Yrotation
        JOINT RightToeBase
        {
          OFFSET 12.7242 0 0
          CHANNELS 3 Zrotation Xrotation Yrotation
          End Site
          {
            OFFSET 0 0 0
          }
        }
      }
    }
  }
  JOINT Spine
  {
    OFFSET 0.165834 0.87714 6.61349
    CHANNELS 3 Zrotation Xrotation Yrotation
    JOINT Spine1
    {
      OFFSET 7.38963 1.71661e-005 0
      CHANNELS 3 Zrotation Xrotation Yrotation
      JOINT Spine2
      {
        OFFSET 11.9445 1.14441e-005 0
        CHANNELS 3 Zrotation Xrotation Yrotation
        JOINT Spine3
        {
          OFFSET 14.7254 4.19617e-005 0
          CHANNELS 3 Zrotation Xrotation Yrotation
          JOINT Spine4
          {
            OFFSET 10.9679 0 0
            CHANNELS 3 Zrotation Xrotation Yrotation
            JOINT RightShoulder
            {
              OFFSET 2.46616 -1.6653 3.69651
              CHANNELS 3 Zrotation Xrotation Yrotation
              JOINT RightArm
              {
                OFFSET 13.0012 0 0
                CHANNELS 3 Zrotation Xrotation Yrotation
                JOINT RightForeArm
                {
                  OFFSET 28.7848 1.52588e-005 0
                  CHANNELS 3 Zrotation Xrotation Yrotation
                  JOINT RightHand
                  {
                    OFFSET 26.5688 1.52588e-005 0
                    CHANNELS 3 Zrotation Xrotation Yrotation
                    End Site
                    {
                      OFFSET 0 0 0
                    }
                  }
                }
              }
            }
            JOINT LeftShoulder
            {
              OFFSET 2.38034 -1.29275 -3.7523
              CHANNELS 3 Zrotation Xrotation Yrotation
              JOINT LeftArm
              {
                OFFSET 16.3182 6.10351e-005 0
                CHANNELS 3 Zrotation Xrotation Yrotation
                JOINT LeftForeArm
                {
                  OFFSET 27.0901 0 0
                  CHANNELS 3 Zrotation Xrotation Yrotation
                  JOINT LeftHand
                  {
                    OFFSET 24.5451 1.52588e-005 0
                    CHANNELS 3 Zrotation Xrotation Yrotation
                    End Site
                    {
                      OFFSET 0 0 0
                    }
                  }
                }
              }
            }
            JOINT Neck
            {
              OFFSET 5.0226 -0.0266342 0
              CHANNELS 3 Zrotation Xrotation Yrotation
              JOINT Head
              {
                OFFSET 6.69364 2.86102e-005 0
                CHANNELS 3 Zrotation Xrotation Yrotation
                End Site
                {
                  OFFSET 0 0 0
                }
              }
            }
          }
        }
      }
    }
  }
}
MOTION
Frames:	14
Frame Time:	0.0416667
-78.3261 93.4192 -11.3385 86.8653 -15.3522 80.8368 -174.986 33.0523 78.2428 -45.1078 24.8412 -3.98705 71.1424 7.80513 4.38709 17.4528 -4.21421 -5.52876 168.747 -7.29082 95.5497 -61.0574 -7.79206 5.97933 63.8738 -2.3363 -1.27273 17.1039 1.82333 9.32494 3.54554 8.6131 -88.2565 9.55243 7.85478 2.8573 -2.09703 7.97287 2.50697 -24.7528 6.63266 5.09254 -4.74015 6.63266 5.09256 90.3293 -11.7305 -115.591 3.10383 -17.1844 1.54987 -42.2733 -14.8723 -73.6271 -39.8611 1.0104 -16.601 -87.4996 -49.0393 82.3062 -8.52742 21.3184 24.8766 35.808 17.6507 -65.7696 12.3199 -1.67007 -16.5851 35.6108 -32.6308 -18.7905 -10.9052 -23.3373 -0.0118787 
-73.5818 92.6319 -6.3028 86.9468 -16.9409 80.1196 -175.868 30.5334 78.6776 -51.3552 20.5027 -1.67799 79.4918 13.3731 2.57523 16.1667 -7.65571 2.00724 165.198 1.32223 93.3382 -78.0902 -1.32205 3.58005 65.3483 -4.28526 -3.20739 16.9977 1.54827 10.6261 3.10835 8.65231 -88.1234 9.46844 7.04225 3.19005 -2.18652 7.17574 2.87584 -24.8011 5.75848 5.16223 -4.78847 5.75845 5.16221 88.4023 -17.2626 -116.636 8.3338 -18.6302 9.53563 -43.3453 -16.0677 -73.8572 -40.1249 0.231699 -14.4301 -88.946 -50.624 80.4275 -2.34928 22.2612 15.9813 35.6913 13.8808 -67.8603 12.4378 -1.83211 -17.7107 33.6154 -30.4885 -19.9656 -9.33897 -21.008 -1.14841 
-69.1496 91.7762 -1.21305 87.8814 -18.075 77.6559 -176.173 25.1767 78.558 -51.5622 18.7768 -1.03324 82.8086 15.9964 1.73692 23.9087 -3.26769 2.29392 164.524 11.254 90.3071 -93.128 0.115248 0.0624576 68.6095 -7.10309 -4.92457 14.3427 2.6148 9.11857 2.48942 8.95496 -87.8508 8.8517 5.92227 3.85701 -2.8107 6.08612 3.59221 -25.3689 4.49085 5.45797 -5.35622 4.49086 5.45798 87.5306 -20.5919 -116.54 16.5217 -19.297 17.7361 -43.7985 -16.8202 -73.8812 -39.6243 -0.0399047 -13.8452 -89.2417 -51.0521 80.0741 4.19949 20.5623 1.66038 34.7955 10.8436 -69.6519 16.8104 -2.32157 -17.5348 35.7138 -28.4395 -18.5297 -9.83242 -18.9509 -3.74604 
-64.4673 90.9151 3.85429 88.0756 -19.0501 76.4282 -176.05 19.5415 79.9573 -50.6963 17.2559 -0.749532 87.3495 19.1828 -0.082539 27.7501 -1.52182 3.99353 167.794 21.7674 89.7211 -104.594 -4.03873 -2.33359 72.4131 -9.90603 -6.52974 10.5025 3.63922 9.11413 1.83561 9.08121 -87.7123 8.60771 4.67546 4.22586 -3.06102 4.85675 4.01605 -25.5774 3.19135 5.43362 -5.56475 3.19135 5.43362 88.0999 -21.2549 -114.877 28.5709 -21.9718 25.5117 -39.869 -13.872 -71.9686 -40.4671 0.503595 -14.2446 -88.713 -47.9857 80.2495 6.71556 15.0726 -11.6375 33.6653 7.4793 -72.0742 18.3658 -2.33497 -16.5765 36.4215 -26.0039 -18.353 -9.48536 -16.3889 -4.76142 
-59.8172 90.6516 9.03007 87.5193 -21.7533 78.2322 -174.018 13.182 85.0478 -47.4621 16.2178 -0.687242 91.836 21.1483 -3.60265 29.5958 -0.850273 5.75489 173.321 31.5178 91.3138 -110.328 -6.29876 -3.30367 73.9975 -11.2781 -8.37245 11.9613 2.59047 11.4588 1.37891 8.97287 -87.9816 8.85436 3.64886 3.74985 -2.81639 3.81024 3.58573 -25.3285 2.35458 4.67171 -5.31582 2.35455 4.6717 90.119 -19.7419 -111.131 42.8991 -26.6224 33.1067 -42.1632 -12.4293 -71.3626 -35.8454 0.695369 -16.2617 -88.4567 -44.5634 79.9549 7.75352 6.81392 -20.4416 33.9035 4.23839 -76.143 16.9282 -2.76154 -19.9853 35.9261 -22.1877 -17.0724 -9.56876 -13.2635 -4.47252 
-54.9274 90.8405 14.2176 85.4541 -24.0265 79.4415 -172.02 7.72782 89.4807 -41.8168 17.6992 -0.635965 90.5309 21.6059 -2.25163 34.0447 1.59945 6.82481 178.628 42.0644 91.4461 -111.218 -3.54269 -3.71748 76.2102 -12.4679 -8.61713 13.0146 2.00949 12.6144 0.760562 8.57332 -88.2007 9.6806 2.32901 3.38656 -1.99239 2.47574 3.28088 -24.498 1.20444 3.92916 -4.48531 1.20444 3.92916 91.4881 -18.9718 -108.308 57.4794 -30.6047 42.5545 -45.1441 -11.6587 -70.1292 -35.0298 0.608065 -16.6337 -88.0404 -40.3228 79.7086 10.2902 -0.71906 -26.309 35.6861 1.60575 -81.1255 20.2683 -2.93541 -18.5121 33.5511 -17.9386 -17.7517 -9.85223 -9.27858 -3.20087 
-49.6258 91.6559 19.9311 84.3597 -25.268 81.3612 -170.852 2.40082 93.926 -35.8515 20.5777 0.370219 84.4283 18.8039 0.0569157 38.7172 4.09865 9.2855 -177.763 49.3424 91.4604 -106.972 0.525115 -3.99892 80.0021 -13.7033 -7.63006 11.8775 3.15808 9.52118 -0.125627 8.23855 -88.5055 10.3817 0.434186 2.93021 -1.29244 0.562673 2.90828 -23.8012 -0.466158 2.9253 -3.78856 -0.466146 2.9253 92.4981 -16.8411 -106.898 70.561 -30.9651 52.3442 -46.2422 -10.5241 -69.0083 -35.8981 0.422202 -15.5678 -86.5029 -33.0821 80.7649 10.6543 -7.88409 -28.141 35.856 -1.66025 -86.183 18.2871 -3.02605 -20.3589 31.3434 -13.152 -18.411 -11.2321 -4.71782 -2.57804 
-43.8176 93.0423 25.9305 84.4716 -26.9746 83.7918 -169.776 -5.23905 97.3919 -27.8286 22.4648 1.63463 73.159 12.2405 2.50048 46.46 8.74481 13.1236 -174.841 52.962 91.4062 -98.5474 3.26094 -4.52729 83.3505 -13.9457 -6.30782 12.4159 3.14883 9.05626 -1.01765 8.06826 -88.8554 10.7477 -1.4986 2.41477 -0.924789 -1.3909 2.47834 -23.4551 -2.15493 1.85296 -3.4425 -2.15494 1.85296 93.9036 -14.4338 -104.43 79.3581 -30.5746 60.2387 -44.3571 -7.97524 -67.2343 -33.7251 1.18102 -17.9633 -84.8901 -24.6879 81.9537 9.45317 -13.4715 -25.5763 34.9885 -3.74278 -91.0057 20.003 -3.37258 -20.8543 30.607 -8.52247 -19.2863 -13.0272 -0.075076 -1.194 
-37.5333 94.5245 32.1457 84.2072 -29.7799 86.5263 -168.231 -12.5508 101.141 -18.144 24.8612 2.17863 58.4507 3.18738 5.53183 50.9217 11.563 12.5392 -172.939 54.8285 92.561 -87.4161 2.66229 -5.14588 83.54 -12.5845 -5.05715 13.8159 2.76656 9.06745 -1.69206 7.96556 -89.3592 10.9655 -3.07185 1.56688 -0.702934 -2.99993 1.70063 -23.2656 -3.40063 0.570355 -3.25291 -3.40062 0.570352 95.7568 -9.99838 -101.424 84.2206 -28.9838 65.2253 -46.5972 -7.88487 -66.2039 -31.5404 1.45394 -20.4648 -83.5911 -16.9176 82.8659 7.88156 -16.4723 -22.035 33.2785 -5.38711 -95.8299 21.0813 -3.45865 -20.4972 32.3424 -4.07959 -18.1979 -16.1929 3.99504 -0.359693 
-30.5818 96.0096 38.5817 82.982 -33.9705 89.3993 -167.049 -17.5606 103.395 -13.3346 21.9319 3.96732 49.7423 -3.4468 3.34605 31.1808 0.821959 2.22784 -172.398 54.7672 95.3433 -74.0035 -1.77302 -5.55963 80.7686 -11.3014 -4.10119 14.9204 3.03874 6.86601 -2.03172 7.91506 -89.9848 11.057 -4.03733 0.418979 -0.6078 -4.01496 0.59655 -23.1922 -3.97628 -0.815757 -3.17953 -3.97629 -0.815766 90.9702 -11.0231 -114.356 73.8002 -9.1681 64.8613 -44.4312 -8.17188 -70.4627 -32.0496 1.41417 -20.1715 -82.6501 -11.5076 83.7768 6.99127 -17.1944 -20.6624 31.488 -6.47482 -98.2059 20.3603 -3.41517 -20.8002 34.7013 -0.261429 -17.4078 -19.3334 7.3892 1.6537 
-23.3891 96.7496 44.9886 80.5698 -37.8577 91.6032 -167.524 -18.099 103.804 -18.39 18.0676 5.74012 53.2648 -2.33775 2.44772 11.6777 -8.62862 -1.92879 -174.054 54.0179 98.658 -60.6552 -8.55406 -4.77848 77.6902 -10.0081 -3.47688 17.76 2.38194 6.1586 -2.09569 7.92761 -90.6563 11.0051 -4.47591 -0.877801 -0.658319 -4.5102 -0.679571 -23.243 -4.00491 -2.18433 -3.23032 -4.00491 -2.18432 94.5308 -10.5441 -104.646 72.7244 -15.2815 64.9818 -38.7307 -5.66393 -68.2202 -33.0884 2.81004 -22.8877 -82.4616 -5.47197 82.387 3.03082 -17.2993 -19.7595 31.2495 -7.2288 -99.8859 19.3155 -3.68589 -22.9916 37.1513 2.67995 -16.4788 -20.9553 9.80374 3.42818 
-16.5923 96.4483 51.0737 79.4525 -41.2441 92.1745 -168.925 -17.9553 101.695 -28.2854 16.1083 5.66669 58.4515 0.893366 3.31536 13.8042 -7.14956 -2.73312 -176.522 51.6733 100.275 -49.6777 -14.8704 -3.13761 74.8044 -8.62003 -2.71805 21.7943 1.57663 4.28171 -2.07948 8.01537 -91.0767 10.8111 -4.63758 -1.71129 -0.85247 -4.70837 -1.50515 -23.4291 -3.90884 -3.02731 -3.41643 -3.90883 -3.0273 91.5568 -13.1055 -111.386 63.7171 -4.59218 62.5707 -34.063 -7.79341 -70.8831 -35.4402 3.12611 -22.4214 -82.1503 -3.92823 82.8235 -2.0593 -14.2794 -23.9156 32.8396 -7.78865 -99.3204 17.4289 -3.95839 -26.2808 37.1614 6.44159 -12.504 -18.1787 11.6702 2.14382 
-10.113 95.8987 57.085 80.7688 -44.0003 92.2918 -169.695 -17.0246 98.3828 -40.7089 16.7975 4.5515 57.8736 0.184382 4.1084 21.2995 -2.87367 -3.76045 -178.811 47.3829 100.441 -43.0841 -16.6484 -1.45078 74.4885 -8.70554 -2.98535 21.0892 1.77571 4.36133 -2.0622 8.17211 -91.313 10.4844 -4.71021 -2.19136 -1.17954 -4.80205 -1.9816 -23.749 -3.83402 -3.50653 -3.73637 -3.83403 -3.50654 90.5816 -17.4611 -111.312 55.8818 -2.21493 58.1155 -36.9027 -9.54828 -74.3188 -34.6843 2.20146 -20.4624 -82.95 -9.47187 82.2733 -5.25312 -7.3469 -27.8236 36.756 -8.64945 -97.7717 14.6627 -3.23414 -25.0876 35.4021 11.0783 -4.15936 -14.6929 12.5874 -1.72337 
-3.75499 95.1192 63.2042 83.0079 -46.6232 93.0295 -169.377 -13.5543 95.8736 -56.6137 16.4121 3.15641 57.7116 -0.588958 3.4143 22.6935 -1.37005 -6.57918 179.104 42.0107 100.258 -39.9351 -13.0822 0.304457 74.2186 -8.35294 -2.38215 21.26 1.53928 5.29054 -1.95556 8.34409 -91.3557 10.1384 -4.51459 -2.31179 -1.5264 -4.61194 -2.11058 -24.0889 -3.61136 -3.56225 -4.07625 -3.61137 -3.56226 87.2985 -21.8069 -116.327 47.2465 1.99368 51.3035 -36.6306 -11.8553 -77.588 -34.948 2.04725 -20.2212 -84.4795 -17.0153 80.7756 -8.20609 1.42315 -29.8261 39.6964 -8.18683 -94.2472 11.6501 -2.69606 -25.3236 34.0308 13.3791 -0.669688 -14.0343 13.2811 -2.38488 
